<!-- here is a big, empty SVG! make it into something interesting! -->
<svg xmlns="http://www.w3.org/2000/svg" xmlns:xlink="http://www.w3.org/1999/xlink" height="600px" width="600px">
    <!-- you can delete this big rectangle - it's just a placeholder -->
    <rect x="0" y="0" height="600" width="600" fill="white" />
<defs>
    <path id="hairpiece1" d="M0,0 L-10,0 C-30,6,-48,30,-60,59 C-40,42,-20,34,-1,33 L0,33 L30,0" fill="#45645F"/>
    <path id="hairpiece2" d="M0,0 C-110,30,-50,80,-20,90 C30,110,30,140,-20,170 C80,130,90,30,0,0" fill="#45645F"/>
    <path id="hairpiece3" d="M4,20 C10,70,40,80,80,92 C30,60,80,30,48,0 L4,0" fill="#45645F"/>
    <polygon id="little poly" points="10,-5 50,-15 50,25 10,5" fill="#FFFFFF"/>    
    <g id="bow">
        <circle cx="0" cy="0" r="12" fill="#FFFFFF"/>
        <use href="#little poly" transform="rotate(10)"/>
        <use href="#little poly" transform="scale(-1,-1) rotate(10)"/>
    </g>
    <path id="hairpiece4" d="M-133,0 C-160,40,-150,90,-100,130 C-120,110,-115,90,-108,67 C-93,90,-90,92,-64,107 
                C-90,73,-99,20,-93,0" fill="#45645F"/>
    <path id="hairpiece5" d="M-35,0 C-20,40,-10,55,33,70 C26,50,27,30,30,0" fill="#45645F"/>
    <path id="red" d="M64,55 L60,70 L68,60 L88,50 L90,34 L83,43" fill="#9E3A48"/>
</defs>
    <g transform="translate(260,220)">
        <use href="#hairpiece1" transform="scale(1,-1)"/>
        <g transform="translate(40,-15)">
            <use href="#hairpiece2" transform="scale(0.95,-1.1)"/>
            <g transform="translate(20,30)">
                <use href="#hairpiece3" transform="scale(1,-1)"/>
                <g transform="translate(0,-28)">
                    <path d="M0,0 L0,-40 L40,-40 L40,10" fill="#45645F"/>
                    <use href="#bow" transform="scale(1.2,1.2)"/>
                </g>
            </g>
        </g>
    </g>
    <ellipse cx="300" cy="310" rx="115" ry="100" fill="#45645F" />
    <path d="M167,368 L433,368 L433,440 L167,440" fill="white"/>
    <g transform="translate(300,378)">
        <use href="#hairpiece4" />
        <use href="#hairpiece5" transform="scale(0.8,1)"/>
        <path d="M76,0 C84,30,90,40,107,57, C101,80,100,93,77,108 C110,104,120,90,128,72 
                C140,84,144,83,158,85 L137,58 C140,30,140,27,135,0" fill="#45645F"/>
        <use href="#red" />
        <use href="#red" transform="scale(-1,1)" />
    </g>
    <g transform="translate(0,18) scale(1,0.90)">
        <path d="M240,270 C290,255,310,255,360,270 C382,247,400,230,430,213 L436,213 L425,320 L434,400  
                    C310,420,290,420,167,400 L175,320 L164,213 L170,213 C200,230,218,243,240,270  " fill="#9E3A48" stroke="#9E3A48" stroke-width="3"/>
        <path d="M374,300 L432,219 L420,324 L405,338" fill="white" />
        <path d="M226,300 L168,219 L180,324 L195,338" fill="white" />
        <g transform="translate(300,400)">
            <path id="part1" d="M40,6 L68,-30 L95,-2" fill="white" transform="translate(-17,0)" />
            <use href="#part1" transform="scale(-1,1)" />
            <g transform="translate(0,-86)">
                <path d="M-56,-36 L-30,-10 L-10,-30 M-27,-35 L4,-4 L-10 10 M-20,0 L-6,-14  
                        M0,20 L20,0 L-6,-26 L8,-40 L34,-14 L56,-36 M0,-32 L26,-6" fill="None" stroke="white" stroke-width="5.5"  transform="scale(1,1.2)"/>

            </g>

        </g>
    </g>
    <text x="200" y="570" dx="20" fill="black" style="font-size:50px;" font-style="italic" >KIRIKO</text>
    
    
    
            

</svg>
