<?xml version="1.0" encoding="UTF-8" standalone="no"?>
<svg xmlns:rdf="http://www.w3.org/1999/02/22-rdf-syntax-ns#" xmlns="http://www.w3.org/2000/svg" xml:space="preserve" height="43.93" width="225.12" version="1.1" xmlns:cc="http://creativecommons.org/ns#" xmlns:dc="http://purl.org/dc/elements/1.1/" viewBox="0 0 225.11595 43.929692"><g style="" transform="translate(-.82912 -.59204)"><path fill="#8b1f41" d="m51.724 1.729c-5.647 0-10.84 3.095-13.527 8.062l-3.309 6.116-0.385 0.711-0.373 0.689-9.994 18.473-16.316-30.495h7.257l5.843 10.864 3.066 5.701 3.165-5.646 6.121-10.919h5.291c1.278-1.423 2.772-2.62 4.417-3.555h-11.79l-7.14 12.735-6.85-12.735h-15.314l22.232 41.553 12.375-22.873 2.052-3.792 0.385-0.711 2.38-4.398c0.13-0.24 0.267-0.474 0.411-0.702 1.588-2.51 4.044-4.308 6.853-5.089 0.766-0.213 1.558-0.35 2.366-0.405 0.269-0.018 0.541-0.028 0.813-0.028h32.397l-3.271 6.097h-14.99l-1.003 1.885-13.871 26.06h-7.355l12.165-22.593 2.822-5.241h-14.599c-0.833 1.318-2.027 3.555-2.027 3.555h10.673l-14.986 27.835h15.442l14.874-27.946h14.983l7.086-13.207h-38.369z"/><path fill="#f60" d="m156.2 1.5352c-0.868 1e-7 -1.7029 0.11294-2.5059 0.33594-0.803 0.224-1.5559 0.53927-2.2559 0.94727-0.7 0.409-1.3371 0.90056-1.9121 1.4766-0.576 0.576-1.0704 1.2102-1.4824 1.9062-0.413 0.696-0.73013 1.445-0.95313 2.248-0.223 0.804-0.33593 1.6398-0.33593 2.5078 0 1.306 0.24723 2.5308 0.74023 3.6738 0.494 1.142 1.1722 2.1383 2.0312 2.9883 0.858 0.851 1.859 1.5236 3.002 2.0176s2.3659 0.74023 3.6719 0.74023c0.653 0 1.2994-0.03266 1.9394-0.09766 0.64-0.064 1.2556-0.18338 1.8496-0.35938 0.593-0.176 1.1602-0.4158 1.7012-0.7168 0.542-0.301 1.0438-0.68248 1.5078-1.1465v-7.7441h-6.291v1.0312c0 0.601 0.0811 1.0544 0.24414 1.3594 0.163 0.306 0.38134 0.52139 0.65234 0.65039 0.27 0.129 0.57879 0.19717 0.92579 0.20117 0.348 0.004 0.70345 0.0096 1.0644 0.01758v2.6035c-0.335 0.206-0.70538 0.36456-1.1094 0.47656-0.404 0.112-0.77981 0.19509-1.1328 0.24609-0.412 0.06-0.82061 0.09552-1.2246 0.10352-0.824 0-1.6123-0.15484-2.3633-0.46484-0.752-0.309-1.4115-0.73525-1.9785-1.2812-0.567-0.546-1.0185-1.1859-1.3535-1.9199-0.336-0.735-0.50195-1.5289-0.50195-2.3789 0-0.833 0.16042-1.6157 0.48242-2.3457s0.75959-1.3681 1.3086-1.9141c0.55-0.546 1.1946-0.97692 1.9336-1.2949 0.739-0.318 1.5207-0.47656 2.3457-0.47656 0.644 1e-7 1.2513 0.094203 1.8223 0.2832s1.1018 0.45016 1.5918 0.78516c0.395 0.275 0.83441 0.41211 1.3164 0.41211 0.36 0 0.67998-0.059687 0.95898-0.17969s0.5393-0.30373 0.7793-0.55273l0.77344-0.78711c-0.481-0.516-1.0006-0.98058-1.5586-1.3926-0.559-0.413-1.143-0.76464-1.752-1.0566-0.61-0.292-1.2472-0.51492-1.9082-0.66992s-1.3364-0.23242-2.0234-0.23242zm-56.354 0.19531 8.0547 18.467h3.0664l8.0547-18.467h-2.0996c-0.48101 0-0.92227 0.12786-1.3223 0.38086-0.399 0.253-0.69281 0.59911-0.88281 1.0371-0.841 1.916-1.6769 3.8217-2.5059 5.7207s-2.4941 5.7227-2.4941 5.7227l-0.28711 0.6543-0.29297-0.66992-4.9863-11.43c-0.086-0.206-0.20733-0.39441-0.36133-0.56641-0.155-0.172-0.33129-0.32217-0.52929-0.45117s-0.41068-0.22788-0.63868-0.29688c-0.227-0.068-0.4555-0.10156-0.6875-0.10156h-2.0879zm22.012 0v18.465h3.3867v-18.465h-3.3867zm8.9648 0v18.465h3.373v-6.6484h2.5274l3.3633 4.5352c0.267 0.386 0.53936 0.71447 0.81836 0.98047 0.28 0.267 0.5505 0.48339 0.8125 0.65039 0.261 0.167 0.5129 0.29019 0.7539 0.36719 0.24 0.077 0.45086 0.11523 0.63086 0.11523h2.6406c-0.91-1.219-1.8121-2.4317-2.7051-3.6387-0.894-1.207-1.7894-2.4253-2.6914-3.6543 0.532-0.266 1.003-0.58966 1.416-0.97266 0.412-0.382 0.76192-0.80086 1.0449-1.2559 0.284-0.455 0.49753-0.93908 0.64453-1.4551 0.145-0.515 0.21875-1.0449 0.21875-1.5859 0-0.748-0.14278-1.4727-0.42578-2.1777-0.284-0.705-0.68127-1.3347-1.1973-1.8887-0.51601-0.554-1.1383-0.99898-1.8633-1.334-0.726-0.336-1.5347-0.50195-2.4277-0.50195h-6.9336zm37.83 0v18.465h3.3906v-18.465h-3.3906zm8.9668 0v18.467h3.375v-13.814l9.8848 13.812h3.1309v-18.465h-3.377v12.346s-6.918-9.7813-8.207-11.611c-0.18-0.249-0.42819-0.43469-0.74219-0.55469s-0.67489-0.17969-1.0879-0.17969h-2.9766zm21.969 0v18.465h3.3887v-18.465h-3.3887zm14.291 0-8.0664 18.465h2.0996c0.232 0 0.46245-0.03256 0.68945-0.10156 0.228-0.069 0.43967-0.16602 0.63867-0.29102 0.198-0.124 0.37235-0.27331 0.52735-0.44531s0.27533-0.36041 0.36133-0.56641l1.084-2.5h0.002l1.9531-4.4961h0.0156l2.2227-5.1582 2.7012 6.2637h-1.5332c-1.148 0-2.1856 0.68138-2.6426 1.7344l-0.71875 1.6543h6.3887l1.0957 2.5c0.198 0.438 0.49462 0.78225 0.89062 1.0312 0.395 0.249 0.83345 0.375 1.3144 0.375h2.0996l-8.0684-18.465h-3.0547zm-79.68 3.3887h3.6582c0.326 0 0.63955 0.070031 0.93555 0.20703 0.297 0.138 0.55344 0.32269 0.77344 0.55469 0.219 0.232 0.39348 0.49969 0.52148 0.80469 0.129 0.305 0.19336 0.62398 0.19336 0.95898 0 0.326-0.0644 0.64227-0.19336 0.94727-0.129 0.306-0.30248 0.57464-0.52148 0.80664s-0.47544 0.41573-0.77344 0.55273c-0.296 0.137-0.60955 0.20703-0.93555 0.20703h-3.6582v-5.0391zm8.7441 19.504c-0.868 0-1.7057 0.11294-2.5137 0.33594-0.808 0.224-1.5607 0.53927-2.2617 0.94727-0.699 0.409-1.3361 0.90056-1.9121 1.4766-0.576 0.576-1.0694 1.2102-1.4824 1.9062-0.412 0.696-0.73013 1.445-0.95313 2.248-0.224 0.804-0.33593 1.6398-0.33593 2.5078 0 1.306 0.24623 2.5308 0.74023 3.6738 0.494 1.142 1.1722 2.1383 2.0312 2.9883 0.859 0.851 1.8608 1.5236 3.0078 2.0176 1.146 0.494 2.3737 0.74024 3.6797 0.74024 0.687 0 1.3586-0.07742 2.0156-0.23242 0.657-0.154 1.2922-0.37792 1.9062-0.66992s1.2008-0.64464 1.7598-1.0566c0.558-0.413 1.0776-0.87658 1.5586-1.3926l-0.78515-0.78516c-0.232-0.223-0.48391-0.39748-0.75391-0.52148-0.271-0.125-0.60033-0.1875-0.98633-0.1875-0.241 0-0.47045 0.03451-0.68945 0.10352-0.22 0.068-0.42233 0.1632-0.61133 0.2832-0.49 0.334-1.0208 0.59802-1.5918 0.79102s-1.1802 0.29102-1.8242 0.29102c-0.834 0-1.6176-0.16052-2.3516-0.47852-0.734-0.317-1.3786-0.74892-1.9336-1.2949-0.555-0.545-0.99245-1.1849-1.3144-1.9199-0.322-0.735-0.48242-1.5186-0.48242-2.3516s0.16042-1.6148 0.48242-2.3418c0.323-0.73 0.75945-1.3681 1.3144-1.9141 0.555-0.546 1.1996-0.97692 1.9336-1.2949 0.734-0.318 1.5176-0.47656 2.3516-0.47656 0.635 0 1.2415 0.0942 1.8125 0.2832 0.57 0.189 1.1045 0.45016 1.6035 0.78516 0.395 0.275 0.82778 0.41211 1.3008 0.41211 0.361 0 0.68466-0.06522 0.97266-0.19922s0.54358-0.31216 0.76758-0.53516l0.78515-0.78711c-0.481-0.516-1.0006-0.98058-1.5586-1.3926-0.559-0.413-1.1448-0.76464-1.7598-1.0566-0.614-0.292-1.2492-0.51492-1.9062-0.66992s-1.3286-0.23242-2.0156-0.23242zm-40.637 0.18164v3.2598h5.4394v15.219h3.3887v-15.219h5.4258v-3.2598h-14.254zm17.09 0.01172v18.467h11.855v-3.2363h-8.4805v-4.459h6.8809v-3.2344h-6.8809v-4.3027h8.4805v-3.2344h-11.855zm34.504 0v18.467h3.377v-7.6543h9.0723v7.6543h3.3887v-18.467h-3.3887v7.5762h-9.0723v-7.5762h-3.377z"/></g></svg>
